<svg width="86" height="78" viewBox="0 0 86 78" fill="none" xmlns="http://www.w3.org/2000/svg">
<g opacity="0.3">
<mask id="mask0_1_71" style="mask-type:alpha" maskUnits="userSpaceOnUse" x="0" y="0" width="8" height="8">
<path d="M3.94936 7.97735C6.13053 7.97735 7.89872 6.19152 7.89872 3.98865C7.89872 1.78577 6.13053 0 3.94936 0C1.76819 0 0 1.78577 0 3.98865C0 6.19152 1.76819 7.97735 3.94936 7.97735Z" fill="url(#paint0_linear_1_71)"/>
</mask>
<g mask="url(#mask0_1_71)">
<path d="M3.94936 7.97735C6.13053 7.97735 7.89872 6.19152 7.89872 3.98865C7.89872 1.78577 6.13053 0 3.94936 0C1.76819 0 0 1.78577 0 3.98865C0 6.19152 1.76819 7.97735 3.94936 7.97735Z" fill="url(#paint1_linear_1_71)"/>
</g>
<mask id="mask1_1_71" style="mask-type:alpha" maskUnits="userSpaceOnUse" x="22" y="0" width="9" height="8">
<path d="M26.8224 7.97735C29.0035 7.97735 30.7717 6.19152 30.7717 3.98865C30.7717 1.78577 29.0035 0 26.8224 0C24.6412 0 22.873 1.78577 22.873 3.98865C22.873 6.19152 24.6412 7.97735 26.8224 7.97735Z" fill="url(#paint2_linear_1_71)"/>
</mask>
<g mask="url(#mask1_1_71)">
<path d="M26.8227 7.97735C29.0039 7.97735 30.7721 6.19152 30.7721 3.98865C30.7721 1.78577 29.0039 0 26.8227 0C24.6415 0 22.8734 1.78577 22.8734 3.98865C22.8734 6.19152 24.6415 7.97735 26.8227 7.97735Z" fill="url(#paint3_linear_1_71)"/>
</g>
<mask id="mask2_1_71" style="mask-type:alpha" maskUnits="userSpaceOnUse" x="45" y="0" width="9" height="8">
<path d="M49.6953 7.97735C51.8765 7.97735 53.6447 6.19152 53.6447 3.98865C53.6447 1.78577 51.8765 0 49.6953 0C47.5142 0 45.746 1.78577 45.746 3.98865C45.746 6.19152 47.5142 7.97735 49.6953 7.97735Z" fill="url(#paint4_linear_1_71)"/>
</mask>
<g mask="url(#mask2_1_71)">
<path d="M49.696 7.97735C51.8772 7.97735 53.6454 6.19152 53.6454 3.98865C53.6454 1.78577 51.8772 0 49.696 0C47.5148 0 45.7466 1.78577 45.7466 3.98865C45.7466 6.19152 47.5148 7.97735 49.696 7.97735Z" fill="url(#paint5_linear_1_71)"/>
</g>
<mask id="mask3_1_71" style="mask-type:alpha" maskUnits="userSpaceOnUse" x="68" y="0" width="9" height="8">
<path d="M72.5683 7.97735C74.7494 7.97735 76.5176 6.19152 76.5176 3.98865C76.5176 1.78577 74.7494 0 72.5683 0C70.3871 0 68.6189 1.78577 68.6189 3.98865C68.6189 6.19152 70.3871 7.97735 72.5683 7.97735Z" fill="url(#paint6_linear_1_71)"/>
</mask>
<g mask="url(#mask3_1_71)">
<path d="M72.5689 7.97735C74.7501 7.97735 76.5182 6.19152 76.5182 3.98865C76.5182 1.78577 74.7501 0 72.5689 0C70.3877 0 68.6195 1.78577 68.6195 3.98865C68.6195 6.19152 70.3877 7.97735 72.5689 7.97735Z" fill="url(#paint7_linear_1_71)"/>
</g>
<mask id="mask4_1_71" style="mask-type:alpha" maskUnits="userSpaceOnUse" x="0" y="20" width="8" height="9">
<path d="M3.94936 28.0037C6.13053 28.0037 7.89872 26.2179 7.89872 24.015C7.89872 21.8122 6.13053 20.0264 3.94936 20.0264C1.76819 20.0264 0 21.8122 0 24.015C0 26.2179 1.76819 28.0037 3.94936 28.0037Z" fill="url(#paint8_linear_1_71)"/>
</mask>
<g mask="url(#mask4_1_71)">
<path d="M3.94936 28.0037C6.13053 28.0037 7.89872 26.218 7.89872 24.0151C7.89872 21.8122 6.13053 20.0265 3.94936 20.0265C1.76819 20.0265 0 21.8122 0 24.0151C0 26.218 1.76819 28.0037 3.94936 28.0037Z" fill="url(#paint9_linear_1_71)"/>
</g>
<mask id="mask5_1_71" style="mask-type:alpha" maskUnits="userSpaceOnUse" x="22" y="20" width="9" height="9">
<path d="M26.8224 28.0038C29.0035 28.0038 30.7717 26.218 30.7717 24.0151C30.7717 21.8123 29.0035 20.0265 26.8224 20.0265C24.6412 20.0265 22.873 21.8123 22.873 24.0151C22.873 26.218 24.6412 28.0038 26.8224 28.0038Z" fill="url(#paint10_linear_1_71)"/>
</mask>
<g mask="url(#mask5_1_71)">
<path d="M26.8227 28.0037C29.0039 28.0037 30.7721 26.2179 30.7721 24.0151C30.7721 21.8122 29.0039 20.0264 26.8227 20.0264C24.6415 20.0264 22.8734 21.8122 22.8734 24.0151C22.8734 26.2179 24.6415 28.0037 26.8227 28.0037Z" fill="url(#paint11_linear_1_71)"/>
</g>
<mask id="mask6_1_71" style="mask-type:alpha" maskUnits="userSpaceOnUse" x="45" y="20" width="9" height="9">
<path d="M49.6953 28.0038C51.8765 28.0038 53.6447 26.218 53.6447 24.0151C53.6447 21.8123 51.8765 20.0265 49.6953 20.0265C47.5142 20.0265 45.746 21.8123 45.746 24.0151C45.746 26.218 47.5142 28.0038 49.6953 28.0038Z" fill="url(#paint12_linear_1_71)"/>
</mask>
<g mask="url(#mask6_1_71)">
<path d="M49.696 28.0037C51.8772 28.0037 53.6454 26.2179 53.6454 24.0151C53.6454 21.8122 51.8772 20.0264 49.696 20.0264C47.5148 20.0264 45.7466 21.8122 45.7466 24.0151C45.7466 26.2179 47.5148 28.0037 49.696 28.0037Z" fill="url(#paint13_linear_1_71)"/>
</g>
<mask id="mask7_1_71" style="mask-type:alpha" maskUnits="userSpaceOnUse" x="68" y="20" width="9" height="9">
<path d="M72.5683 28.0038C74.7494 28.0038 76.5176 26.218 76.5176 24.0151C76.5176 21.8123 74.7494 20.0265 72.5683 20.0265C70.3871 20.0265 68.6189 21.8123 68.6189 24.0151C68.6189 26.218 70.3871 28.0038 72.5683 28.0038Z" fill="url(#paint14_linear_1_71)"/>
</mask>
<g mask="url(#mask7_1_71)">
<path d="M72.5689 28.0037C74.7501 28.0037 76.5182 26.2179 76.5182 24.0151C76.5182 21.8122 74.7501 20.0264 72.5689 20.0264C70.3877 20.0264 68.6195 21.8122 68.6195 24.0151C68.6195 26.2179 70.3877 28.0037 72.5689 28.0037Z" fill="url(#paint15_linear_1_71)"/>
</g>
<mask id="mask8_1_71" style="mask-type:alpha" maskUnits="userSpaceOnUse" x="0" y="40" width="8" height="8">
<path d="M3.94936 47.9887C6.13053 47.9887 7.89872 46.2029 7.89872 44C7.89872 41.7971 6.13053 40.0113 3.94936 40.0113C1.76819 40.0113 0 41.7971 0 44C0 46.2029 1.76819 47.9887 3.94936 47.9887Z" fill="url(#paint16_linear_1_71)"/>
</mask>
<g mask="url(#mask8_1_71)">
<path d="M3.94936 47.9888C6.13053 47.9888 7.89872 46.203 7.89872 44.0001C7.89872 41.7972 6.13053 40.0114 3.94936 40.0114C1.76819 40.0114 0 41.7972 0 44.0001C0 46.203 1.76819 47.9888 3.94936 47.9888Z" fill="url(#paint17_linear_1_71)"/>
</g>
<mask id="mask9_1_71" style="mask-type:alpha" maskUnits="userSpaceOnUse" x="22" y="40" width="9" height="8">
<path d="M26.8224 47.9889C29.0035 47.9889 30.7717 46.2032 30.7717 44.0003C30.7717 41.7974 29.0035 40.0116 26.8224 40.0116C24.6412 40.0116 22.873 41.7974 22.873 44.0003C22.873 46.2032 24.6412 47.9889 26.8224 47.9889Z" fill="url(#paint18_linear_1_71)"/>
</mask>
<g mask="url(#mask9_1_71)">
<path d="M26.8227 47.9888C29.0039 47.9888 30.7721 46.203 30.7721 44.0001C30.7721 41.7972 29.0039 40.0114 26.8227 40.0114C24.6415 40.0114 22.8734 41.7972 22.8734 44.0001C22.8734 46.203 24.6415 47.9888 26.8227 47.9888Z" fill="url(#paint19_linear_1_71)"/>
</g>
<mask id="mask10_1_71" style="mask-type:alpha" maskUnits="userSpaceOnUse" x="45" y="40" width="9" height="8">
<path d="M49.6953 47.9889C51.8765 47.9889 53.6447 46.2032 53.6447 44.0003C53.6447 41.7974 51.8765 40.0116 49.6953 40.0116C47.5142 40.0116 45.746 41.7974 45.746 44.0003C45.746 46.2032 47.5142 47.9889 49.6953 47.9889Z" fill="url(#paint20_linear_1_71)"/>
</mask>
<g mask="url(#mask10_1_71)">
<path d="M49.696 47.9888C51.8772 47.9888 53.6454 46.203 53.6454 44.0001C53.6454 41.7972 51.8772 40.0114 49.696 40.0114C47.5148 40.0114 45.7466 41.7972 45.7466 44.0001C45.7466 46.203 47.5148 47.9888 49.696 47.9888Z" fill="url(#paint21_linear_1_71)"/>
</g>
<mask id="mask11_1_71" style="mask-type:alpha" maskUnits="userSpaceOnUse" x="68" y="40" width="9" height="8">
<path d="M72.5683 47.9889C74.7494 47.9889 76.5176 46.2032 76.5176 44.0003C76.5176 41.7974 74.7494 40.0116 72.5683 40.0116C70.3871 40.0116 68.6189 41.7974 68.6189 44.0003C68.6189 46.2032 70.3871 47.9889 72.5683 47.9889Z" fill="url(#paint22_linear_1_71)"/>
</mask>
<g mask="url(#mask11_1_71)">
<path d="M72.5689 47.9888C74.7501 47.9888 76.5182 46.203 76.5182 44.0001C76.5182 41.7972 74.7501 40.0114 72.5689 40.0114C70.3877 40.0114 68.6195 41.7972 68.6195 44.0001C68.6195 46.203 70.3877 47.9888 72.5689 47.9888Z" fill="url(#paint23_linear_1_71)"/>
</g>
<mask id="mask12_1_71" style="mask-type:alpha" maskUnits="userSpaceOnUse" x="0" y="60" width="8" height="9">
<path d="M3.94936 68.0155C6.13053 68.0155 7.89872 66.2296 7.89872 64.0268C7.89872 61.8239 6.13053 60.0381 3.94936 60.0381C1.76819 60.0381 0 61.8239 0 64.0268C0 66.2296 1.76819 68.0155 3.94936 68.0155Z" fill="url(#paint24_linear_1_71)"/>
</mask>
<g mask="url(#mask12_1_71)">
<path d="M3.94936 68.0152C6.13053 68.0152 7.89872 66.2294 7.89872 64.0265C7.89872 61.8236 6.13053 60.0379 3.94936 60.0379C1.76819 60.0379 0 61.8236 0 64.0265C0 66.2294 1.76819 68.0152 3.94936 68.0152Z" fill="url(#paint25_linear_1_71)"/>
</g>
<mask id="mask13_1_71" style="mask-type:alpha" maskUnits="userSpaceOnUse" x="22" y="60" width="9" height="9">
<path d="M26.8224 68.0155C29.0035 68.0155 30.7717 66.2296 30.7717 64.0268C30.7717 61.8239 29.0035 60.0381 26.8224 60.0381C24.6412 60.0381 22.873 61.8239 22.873 64.0268C22.873 66.2296 24.6412 68.0155 26.8224 68.0155Z" fill="url(#paint26_linear_1_71)"/>
</mask>
<g mask="url(#mask13_1_71)">
<path d="M26.8227 68.0152C29.0039 68.0152 30.7721 66.2294 30.7721 64.0265C30.7721 61.8236 29.0039 60.0379 26.8227 60.0379C24.6415 60.0379 22.8734 61.8236 22.8734 64.0265C22.8734 66.2294 24.6415 68.0152 26.8227 68.0152Z" fill="url(#paint27_linear_1_71)"/>
</g>
<mask id="mask14_1_71" style="mask-type:alpha" maskUnits="userSpaceOnUse" x="45" y="60" width="9" height="9">
<path d="M49.6953 68.0155C51.8765 68.0155 53.6447 66.2296 53.6447 64.0268C53.6447 61.8239 51.8765 60.0381 49.6953 60.0381C47.5142 60.0381 45.746 61.8239 45.746 64.0268C45.746 66.2296 47.5142 68.0155 49.6953 68.0155Z" fill="url(#paint28_linear_1_71)"/>
</mask>
<g mask="url(#mask14_1_71)">
<path d="M49.696 68.0152C51.8772 68.0152 53.6454 66.2294 53.6454 64.0265C53.6454 61.8236 51.8772 60.0379 49.696 60.0379C47.5148 60.0379 45.7466 61.8236 45.7466 64.0265C45.7466 66.2294 47.5148 68.0152 49.696 68.0152Z" fill="url(#paint29_linear_1_71)"/>
</g>
<mask id="mask15_1_71" style="mask-type:alpha" maskUnits="userSpaceOnUse" x="68" y="60" width="9" height="9">
<path d="M72.5683 68.0155C74.7494 68.0155 76.5176 66.2296 76.5176 64.0268C76.5176 61.8239 74.7494 60.0381 72.5683 60.0381C70.3871 60.0381 68.6189 61.8239 68.6189 64.0268C68.6189 66.2296 70.3871 68.0155 72.5683 68.0155Z" fill="url(#paint30_linear_1_71)"/>
</mask>
<g mask="url(#mask15_1_71)">
<path d="M72.5689 68.0152C74.7501 68.0152 76.5182 66.2294 76.5182 64.0265C76.5182 61.8236 74.7501 60.0379 72.5689 60.0379C70.3877 60.0379 68.6195 61.8236 68.6195 64.0265C68.6195 66.2294 70.3877 68.0152 72.5689 68.0152Z" fill="url(#paint31_linear_1_71)"/>
</g>
</g>
<defs>
<linearGradient id="paint0_linear_1_71" x1="38.463" y1="92.4707" x2="-16.6936" y2="-46.1624" gradientUnits="userSpaceOnUse">
<stop stop-color="#89C5CC"/>
<stop offset="1" stop-color="#89C5CC"/>
</linearGradient>
<linearGradient id="paint1_linear_1_71" x1="38.463" y1="92.4707" x2="-16.6936" y2="-46.1624" gradientUnits="userSpaceOnUse">
<stop stop-color="#89C5CC"/>
<stop offset="1" stop-color="#89C5CC"/>
</linearGradient>
<linearGradient id="paint2_linear_1_71" x1="61.336" y1="92.4707" x2="6.17946" y2="-46.1624" gradientUnits="userSpaceOnUse">
<stop stop-color="#89C5CC"/>
<stop offset="1" stop-color="#89C5CC"/>
</linearGradient>
<linearGradient id="paint3_linear_1_71" x1="61.3363" y1="92.4707" x2="6.17982" y2="-46.1624" gradientUnits="userSpaceOnUse">
<stop stop-color="#89C5CC"/>
<stop offset="1" stop-color="#89C5CC"/>
</linearGradient>
<linearGradient id="paint4_linear_1_71" x1="84.209" y1="92.4707" x2="29.0524" y2="-46.1624" gradientUnits="userSpaceOnUse">
<stop stop-color="#89C5CC"/>
<stop offset="1" stop-color="#89C5CC"/>
</linearGradient>
<linearGradient id="paint5_linear_1_71" x1="84.2096" y1="92.4707" x2="29.0531" y2="-46.1624" gradientUnits="userSpaceOnUse">
<stop stop-color="#89C5CC"/>
<stop offset="1" stop-color="#89C5CC"/>
</linearGradient>
<linearGradient id="paint6_linear_1_71" x1="107.082" y1="92.4707" x2="51.9254" y2="-46.1624" gradientUnits="userSpaceOnUse">
<stop stop-color="#89C5CC"/>
<stop offset="1" stop-color="#89C5CC"/>
</linearGradient>
<linearGradient id="paint7_linear_1_71" x1="107.083" y1="92.4707" x2="51.926" y2="-46.1624" gradientUnits="userSpaceOnUse">
<stop stop-color="#89C5CC"/>
<stop offset="1" stop-color="#89C5CC"/>
</linearGradient>
<linearGradient id="paint8_linear_1_71" x1="38.463" y1="112.496" x2="-16.6927" y2="-26.1359" gradientUnits="userSpaceOnUse">
<stop stop-color="#89C5CC"/>
<stop offset="1" stop-color="#89C5CC"/>
</linearGradient>
<linearGradient id="paint9_linear_1_71" x1="38.463" y1="112.496" x2="-16.6927" y2="-26.1358" gradientUnits="userSpaceOnUse">
<stop stop-color="#89C5CC"/>
<stop offset="1" stop-color="#89C5CC"/>
</linearGradient>
<linearGradient id="paint10_linear_1_71" x1="61.336" y1="112.496" x2="6.1804" y2="-26.1358" gradientUnits="userSpaceOnUse">
<stop stop-color="#89C5CC"/>
<stop offset="1" stop-color="#89C5CC"/>
</linearGradient>
<linearGradient id="paint11_linear_1_71" x1="61.3363" y1="112.496" x2="6.18076" y2="-26.1359" gradientUnits="userSpaceOnUse">
<stop stop-color="#89C5CC"/>
<stop offset="1" stop-color="#89C5CC"/>
</linearGradient>
<linearGradient id="paint12_linear_1_71" x1="84.209" y1="112.496" x2="29.0534" y2="-26.1358" gradientUnits="userSpaceOnUse">
<stop stop-color="#89C5CC"/>
<stop offset="1" stop-color="#89C5CC"/>
</linearGradient>
<linearGradient id="paint13_linear_1_71" x1="84.2096" y1="112.496" x2="29.0541" y2="-26.1359" gradientUnits="userSpaceOnUse">
<stop stop-color="#89C5CC"/>
<stop offset="1" stop-color="#89C5CC"/>
</linearGradient>
<linearGradient id="paint14_linear_1_71" x1="107.082" y1="112.496" x2="51.9263" y2="-26.1358" gradientUnits="userSpaceOnUse">
<stop stop-color="#89C5CC"/>
<stop offset="1" stop-color="#89C5CC"/>
</linearGradient>
<linearGradient id="paint15_linear_1_71" x1="107.083" y1="112.496" x2="51.9269" y2="-26.1359" gradientUnits="userSpaceOnUse">
<stop stop-color="#89C5CC"/>
<stop offset="1" stop-color="#89C5CC"/>
</linearGradient>
<linearGradient id="paint16_linear_1_71" x1="38.463" y1="132.482" x2="-16.6936" y2="-6.15105" gradientUnits="userSpaceOnUse">
<stop stop-color="#89C5CC"/>
<stop offset="1" stop-color="#89C5CC"/>
</linearGradient>
<linearGradient id="paint17_linear_1_71" x1="38.463" y1="132.482" x2="-16.6936" y2="-6.15095" gradientUnits="userSpaceOnUse">
<stop stop-color="#89C5CC"/>
<stop offset="1" stop-color="#89C5CC"/>
</linearGradient>
<linearGradient id="paint18_linear_1_71" x1="61.336" y1="132.482" x2="6.17946" y2="-6.15082" gradientUnits="userSpaceOnUse">
<stop stop-color="#89C5CC"/>
<stop offset="1" stop-color="#89C5CC"/>
</linearGradient>
<linearGradient id="paint19_linear_1_71" x1="61.3363" y1="132.482" x2="6.17982" y2="-6.151" gradientUnits="userSpaceOnUse">
<stop stop-color="#89C5CC"/>
<stop offset="1" stop-color="#89C5CC"/>
</linearGradient>
<linearGradient id="paint20_linear_1_71" x1="84.209" y1="132.482" x2="29.0524" y2="-6.15082" gradientUnits="userSpaceOnUse">
<stop stop-color="#89C5CC"/>
<stop offset="1" stop-color="#89C5CC"/>
</linearGradient>
<linearGradient id="paint21_linear_1_71" x1="84.2096" y1="132.482" x2="29.0531" y2="-6.151" gradientUnits="userSpaceOnUse">
<stop stop-color="#89C5CC"/>
<stop offset="1" stop-color="#89C5CC"/>
</linearGradient>
<linearGradient id="paint22_linear_1_71" x1="107.082" y1="132.482" x2="51.9254" y2="-6.15082" gradientUnits="userSpaceOnUse">
<stop stop-color="#89C5CC"/>
<stop offset="1" stop-color="#89C5CC"/>
</linearGradient>
<linearGradient id="paint23_linear_1_71" x1="107.083" y1="132.482" x2="51.926" y2="-6.151" gradientUnits="userSpaceOnUse">
<stop stop-color="#89C5CC"/>
<stop offset="1" stop-color="#89C5CC"/>
</linearGradient>
<linearGradient id="paint24_linear_1_71" x1="38.463" y1="152.509" x2="-16.6936" y2="13.8757" gradientUnits="userSpaceOnUse">
<stop stop-color="#89C5CC"/>
<stop offset="1" stop-color="#89C5CC"/>
</linearGradient>
<linearGradient id="paint25_linear_1_71" x1="38.463" y1="152.509" x2="-16.6936" y2="13.8755" gradientUnits="userSpaceOnUse">
<stop stop-color="#89C5CC"/>
<stop offset="1" stop-color="#89C5CC"/>
</linearGradient>
<linearGradient id="paint26_linear_1_71" x1="61.336" y1="152.509" x2="6.17946" y2="13.8757" gradientUnits="userSpaceOnUse">
<stop stop-color="#89C5CC"/>
<stop offset="1" stop-color="#89C5CC"/>
</linearGradient>
<linearGradient id="paint27_linear_1_71" x1="61.3363" y1="152.509" x2="6.17982" y2="13.8755" gradientUnits="userSpaceOnUse">
<stop stop-color="#89C5CC"/>
<stop offset="1" stop-color="#89C5CC"/>
</linearGradient>
<linearGradient id="paint28_linear_1_71" x1="84.209" y1="152.509" x2="29.0524" y2="13.8757" gradientUnits="userSpaceOnUse">
<stop stop-color="#89C5CC"/>
<stop offset="1" stop-color="#89C5CC"/>
</linearGradient>
<linearGradient id="paint29_linear_1_71" x1="84.2096" y1="152.509" x2="29.0531" y2="13.8755" gradientUnits="userSpaceOnUse">
<stop stop-color="#89C5CC"/>
<stop offset="1" stop-color="#89C5CC"/>
</linearGradient>
<linearGradient id="paint30_linear_1_71" x1="107.082" y1="152.509" x2="51.9254" y2="13.8757" gradientUnits="userSpaceOnUse">
<stop stop-color="#89C5CC"/>
<stop offset="1" stop-color="#89C5CC"/>
</linearGradient>
<linearGradient id="paint31_linear_1_71" x1="107.083" y1="152.509" x2="51.926" y2="13.8755" gradientUnits="userSpaceOnUse">
<stop stop-color="#89C5CC"/>
<stop offset="1" stop-color="#89C5CC"/>
</linearGradient>
</defs>
</svg>
